<svg width="309" height="378" viewBox="0 0 309 378" fill="none" xmlns="http://www.w3.org/2000/svg">
<ellipse cx="92" cy="205" rx="83" ry="131" fill="black"/>
<ellipse cx="217" cy="206" rx="83" ry="131" fill="black"/>
<ellipse cx="153" cy="228.5" rx="112" ry="140.5" fill="black"/>
<path d="M146.432 101.051C164.761 87.8931 210.347 63.9247 243.244 79.4338C272.381 89.6163 314.678 144.758 294.47 242.98C280.643 310.184 223.506 355.3 180.739 365.17" stroke="white" stroke-width="18"/>
<path d="M160.061 101.992C151.602 91.1828 125.754 65.3357 67.1181 79.0385C37.9806 89.221 -17.1139 132.539 23.3027 263.188C43.5799 328.735 86.8564 354.905 129.623 364.774C152.609 370.277 164.389 370.392 183.559 364.774" stroke="white" stroke-width="18"/>
<path d="M155.741 112C153.891 82.4154 154.354 20.1969 171 8" stroke="black" stroke-width="18"/>
</svg>
