<svg width="50" height="50" viewBox="0 0 50 50" fill="none" xmlns="http://www.w3.org/2000/svg">
<g clip-path="url(#clip0_284_12)">
<path fill-rule="evenodd" clip-rule="evenodd" d="M43.5401 0C46.8847 0 49.6 2.71541 49.6 6.05992V43.5401C49.6 46.8846 46.8846 49.6 43.5401 49.6H33.226V30.9114H39.6779L40.9055 22.9074H33.226V17.7133C33.226 15.5236 34.2987 13.3892 37.7384 13.3892H41.23V6.575C41.23 6.575 38.0612 6.03425 35.0317 6.03425C28.707 6.03425 24.5731 9.86749 24.5731 16.8071V22.9074H17.5426V30.9114H24.5731V49.6H6.05992C2.71541 49.6 0 46.8846 0 43.5401V6.05992C0 2.71541 2.71531 0 6.05992 0H43.5401V0Z" fill="white"/>
</g>
<defs>
<clipPath id="clip0_284_12">
<rect width="49.6" height="49.6" fill="white"/>
</clipPath>
</defs>
</svg>
