<svg width="57" height="57" viewBox="0 0 57 57" fill="none" xmlns="http://www.w3.org/2000/svg">
<path d="M28.1999 16.7012C21.1999 16.7012 15.3999 22.4012 15.3999 29.5012C15.3999 36.6012 21.0999 42.3012 28.1999 42.3012C35.2999 42.3012 40.9999 36.5012 40.9999 29.5012C40.9999 22.5012 35.1999 16.7012 28.1999 16.7012ZM28.1999 37.7012C23.6999 37.7012 19.9999 34.0012 19.9999 29.5012C19.9999 25.0012 23.6999 21.3012 28.1999 21.3012C32.6999 21.3012 36.3999 25.0012 36.3999 29.5012C36.3999 34.0012 32.6999 37.7012 28.1999 37.7012Z" fill="white"/>
<path d="M41.5001 19.3C43.1017 19.3 44.4001 18.0016 44.4001 16.4C44.4001 14.7984 43.1017 13.5 41.5001 13.5C39.8985 13.5 38.6001 14.7984 38.6001 16.4C38.6001 18.0016 39.8985 19.3 41.5001 19.3Z" fill="white"/>
<path d="M48.9999 8.90078C46.3999 6.20078 42.6999 4.80078 38.4999 4.80078H17.8999C9.1999 4.80078 3.3999 10.6008 3.3999 19.3008V39.8008C3.3999 44.1008 4.7999 47.8008 7.5999 50.5008C10.2999 53.1008 13.8999 54.4008 17.9999 54.4008H38.3999C42.6999 54.4008 46.2999 53.0008 48.8999 50.5008C51.5999 47.9008 52.9999 44.2008 52.9999 39.9008V19.3008C52.9999 15.1008 51.5999 11.5008 48.9999 8.90078ZM48.5999 39.9008C48.5999 43.0008 47.4999 45.5008 45.6999 47.2008C43.8999 48.9008 41.3999 49.8008 38.3999 49.8008H17.9999C14.9999 49.8008 12.4999 48.9008 10.6999 47.2008C8.8999 45.4008 7.9999 42.9008 7.9999 39.8008V19.3008C7.9999 16.3008 8.8999 13.8008 10.6999 12.0008C12.3999 10.3008 14.9999 9.40078 17.9999 9.40078H38.5999C41.5999 9.40078 44.0999 10.3008 45.8999 12.1008C47.5999 13.9008 48.5999 16.4008 48.5999 19.3008V39.9008Z" fill="white"/>
</svg>
