<svg width="1507" height="1798" viewBox="0 0 1507 1798" fill="none" xmlns="http://www.w3.org/2000/svg">
<path d="M734.5 993.771C553.309 1012.84 323.192 1107.91 50.7224 1362.42C-5.77772 1639.42 299.889 1705.76 741.223 1775.42C1233.22 1775.42 1357.89 1588.42 1358.72 1494.92C1339.06 1387.26 1279.62 1165.82 1199.22 1141.42C1180.31 1119.87 1074.48 1021.74 893.5 996.127" stroke="black" stroke-width="12"/>
<path d="M934 1040.5C906.833 1030.67 857.7 965.6 878.5 784C904.5 557 878.5 615 934 577C989.5 539 1149 561 1213 614.5" stroke="black" stroke-width="12"/>
<path d="M634 1042C675.833 1038.67 759.5 1009.8 759.5 921C759.5 810 782.5 787 735 679.5C687.5 572 572 607.5 523 635.5" stroke="black" stroke-width="12"/>
<path d="M984.5 577.001C958.5 647.501 943.7 772.901 1092.5 710.501C1068 882.001 1295.5 795.001 1295.5 655.001C1391 775.501 1456.5 561.501 1391 533.501C1503 533.501 1473.5 439.001 1356 401.501C1464.5 360.501 1481.5 282.501 1278.5 282.501C1339 155.501 1278.5 165.501 1190 207.001C1244 90.501 1104 95.5009 1079.5 115.001C1059.9 130.601 1052.67 155.168 1051.5 165.501C1034.33 95.3346 983.1 -4.89879 915.5 155.501C890 -9.99858 794.5 -30.4979 755.5 155.501C727.5 49.5021 523 57.5013 602 179.001C472.5 129.001 431.833 292.168 500.5 317.001C407.5 211.501 184.5 446.701 472.5 427.501C256 524.501 380.5 557.501 449 577.001C329 634.001 418.5 700.001 449 682.501C414.5 754.001 507 817.001 538 725.501C599.5 788.501 630 731.001 640.5 682.501C695.5 725.501 722.5 676.001 716 655.001" stroke="black" stroke-width="12"/>
<path d="M986.5 559.001C986.333 563.668 985.6 574.101 984 578.501" stroke="black" stroke-width="12"/>
<path d="M494.5 1734.5C641 1674.21 897 1520.13 749 1386.11C667 1351.05 514.2 1272.93 559 1240.94C615 1200.97 841 1118.63 782 1050.57" stroke="black" stroke-width="26"/>
<path d="M524 1734.5C670.5 1674.21 926.5 1520.13 778.5 1386.11C696.5 1351.05 543.7 1272.93 588.5 1240.94C644.5 1200.97 870.5 1118.63 811.5 1050.57" stroke="black" stroke-width="26"/>
<path d="M565 1746.87C674.5 1696.42 880.1 1565.54 826.5 1445.6" stroke="black" stroke-width="26"/>
<path d="M775.5 1389.92C858 1438.78 931.4 1576.58 565 1736.88" stroke="black" stroke-width="26"/>
<path d="M595 1753.54C743.5 1666.12 987.8 1472.06 777 1395.15" stroke="black" stroke-width="26"/>
<path d="M786 1398.48C873.833 1424.34 967.8 1531.94 641 1755.44" stroke="black" stroke-width="26"/>
<path d="M673 1753.53C792.5 1657.39 983.8 1449.69 793 1388.01" stroke="black" stroke-width="26"/>
<path d="M584.5 1236.66C555.667 1248.88 562 1299.96 818 1406.57" stroke="black" stroke-width="26"/>
<path d="M708 1765.43C827.167 1658.19 1006.8 1431.23 772 1381.35" stroke="black" stroke-width="26"/>
<path d="M745.5 1768.77C872.333 1655.97 1049.9 1420.28 745.5 1379.92" stroke="black" stroke-width="26"/>
<path d="M793 1384.68C688.5 1329.79 506.1 1220.67 612.5 1223.33" stroke="black" stroke-width="26"/>
<path d="M784 1401.81C796.333 1432.75 816.1 1505.38 796.5 1548.4" stroke="black" stroke-width="26"/>
<path d="M895.5 1474.16C899.667 1525.24 873 1654.35 733 1762.1" stroke="black" stroke-width="26"/>
<path d="M805.5 1637.41C773.667 1672.63 708.2 1744.11 701 1748.3" stroke="black" stroke-width="26"/>
<path d="M791 1377.06C901.167 1390.39 1052.4 1488.44 776 1774" stroke="black" stroke-width="15"/>
<path d="M804 1383.73C700.667 1326.61 518.6 1214.1 617 1220.95" stroke="black" stroke-width="15"/>
<path d="M894 1417.99C749.833 1350.73 488.9 1219.81 598.5 1234.28" stroke="black" stroke-width="15"/>
<path d="M768.5 1409.9C656.166 1358.98 458.5 1252.94 566.5 1236.19C701.5 1215.24 804 1121.01 791.5 1117.68" stroke="black" stroke-width="15"/>
<path d="M587.5 1706.89C679.333 1647.4 842.2 1501.09 759 1391.82C655 1255.22 441.5 1276.64 608 1222.86C774.5 1169.08 846 1067.23 788 1060.56M575.5 1255.22C683.667 1214.77 887.5 1116.15 837.5 1045.33" stroke="black" stroke-width="15"/>
<path d="M781 1059.13C791 1073.89 758.6 1130.15 549 1237.14" stroke="black" stroke-width="15"/>
<path d="M536 1248.56C539.833 1243.8 549.6 1233.61 558 1230.95M536 1254.75C527.667 1249.04 560.3 1215.15 757.5 1125.29" stroke="black" stroke-width="12"/>
<path d="M829.5 1048.66C851.667 1065.32 833.3 1128.34 582.5 1247.13" stroke="black" stroke-width="12"/>
<path d="M887 1615.99C882.333 1632.33 853.1 1684.62 773.5 1763.05" stroke="black" stroke-width="12"/>
<path d="M790.918 1774C898.46 1668.27 1055.21 1440.34 821.882 1374.42C634.098 1281.84 603.134 1252.34 611.125 1249.17C704.018 1215.99 880.514 1128.11 843.357 1042" stroke="black" stroke-width="12"/>
<path d="M489 1733C616.662 1671.76 849.587 1521.87 759.99 1412.21C669.993 1375.56 513.499 1286.08 529.499 1255.14C529.499 1223.25 693.993 1145.2 700.492 1141.86C706.992 1138.53 769.49 1110.93 773.49 1060" stroke="black" stroke-width="12"/>
<path d="M806.5 1760.5C805.167 1768.83 741.5 1772.8 497.5 1722" stroke="black" stroke-width="12"/>
<path d="M745 1708L696 1755" stroke="black" stroke-width="12"/>
<ellipse rx="23.3548" ry="35.7602" transform="matrix(0.998597 0.052953 -0.0562738 0.998415 537.84 540.942)" fill="black"/>
<ellipse rx="23.3553" ry="35.7602" transform="matrix(0.998597 0.0529516 -0.0562753 0.998415 572.949 543.078)" fill="black"/>
<ellipse rx="31.5151" ry="38.3537" transform="matrix(0.998597 0.0529527 -0.0562741 0.998415 554.62 548.257)" fill="black"/>
<path d="M557.189 516.82C557.133 508.653 558.251 491.542 563.16 488.43" stroke="black" stroke-width="6"/>
<ellipse rx="23.3565" ry="35.7578" transform="matrix(-0.999626 -0.0273514 -0.0290711 0.999578 845.951 495.973)" fill="black"/>
<ellipse rx="23.3566" ry="35.7579" transform="matrix(-0.999626 -0.0273513 -0.0290712 0.999578 810.78 495.285)" fill="black"/>
<ellipse rx="31.5172" ry="38.3509" transform="matrix(-0.999626 -0.0273514 -0.0290711 0.999578 828.605 501.916)" fill="black"/>
<path d="M828.701 469.827C829.472 461.847 829.854 445.033 825.218 441.614" stroke="black" stroke-width="6"/>
<ellipse rx="23.2927" ry="35.8615" transform="matrix(0.954998 -0.296611 0.313488 0.949592 675.578 272.475)" fill="black"/>
<ellipse rx="23.2927" ry="35.8615" transform="matrix(0.954998 -0.29661 0.313489 0.949592 709.165 262.33)" fill="black"/>
<ellipse rx="31.4312" ry="38.4622" transform="matrix(0.954998 -0.29661 0.313489 0.949592 693.944 273.506)" fill="black"/>
<path d="M684.814 243.112C681.748 235.531 676.466 219.229 679.865 214.665" stroke="black" stroke-width="6"/>
<ellipse rx="23.3562" ry="35.7571" transform="matrix(-0.999963 0.00863166 0.00917412 0.999958 1034.72 308.476)" fill="black"/>
<ellipse rx="23.3567" ry="35.7572" transform="matrix(-0.999963 0.00863153 0.00917426 0.999958 999.543 309.053)" fill="black"/>
<ellipse rx="31.5185" ry="38.3502" transform="matrix(-0.999963 0.00863123 0.00917458 0.999958 1017.61 315.039)" fill="black"/>
<path d="M1016.53 284.302C1016.98 275.922 1016.68 258.309 1011.89 254.896" stroke="black" stroke-width="6"/>
<ellipse rx="23.3281" ry="35.8032" transform="matrix(-0.980427 -0.196884 -0.208739 0.977971 1171.05 604.412)" fill="black"/>
<ellipse rx="23.3289" ry="35.8034" transform="matrix(-0.980428 -0.196878 -0.208745 0.97797 1136.55 597.762)" fill="black"/>
<ellipse rx="31.48" ry="38.3996" transform="matrix(-0.980428 -0.196877 -0.208746 0.97797 1152.9 607.318)" fill="black"/>
<path d="M1158.42 577.311C1160.72 569.131 1164.35 551.688 1160.5 547.363" stroke="black" stroke-width="6"/>
<ellipse rx="23.356" ry="35.7588" transform="matrix(0.999329 0.0366344 -0.0389357 0.999242 1249.16 409.629)" fill="black"/>
<ellipse rx="23.3552" ry="35.7587" transform="matrix(0.999329 0.0366358 -0.0389343 0.999242 1284.3 411.192)" fill="black"/>
<ellipse rx="31.5159" ry="38.3519" transform="matrix(0.999329 0.0366352 -0.0389349 0.999242 1266.06 416.669)" fill="black"/>
<path d="M1268.08 385.299C1267.88 377.104 1268.7 359.912 1273.56 356.71" stroke="black" stroke-width="6"/>
</svg>
