<svg width="937" height="958" viewBox="0 0 937 958" fill="none" xmlns="http://www.w3.org/2000/svg">
<path d="M774 80.5H53V940.5H774V80.5Z" fill="white"/>
<path d="M774 80.5V940.5L883 865.5V24.5L774 80.5Z" fill="white"/>
<path d="M53 80.5H774L883 24.5L152.5 18L53 80.5Z" fill="white"/>
<path d="M53 80.5H774M53 80.5V940.5H774M53 80.5L152.5 18L883 24.5M774 80.5V940.5M774 80.5L883 24.5M774 940.5L883 865.5V24.5" stroke="black" stroke-width="22"/>
<path d="M531.683 293.551C550.012 280.393 595.598 256.425 628.495 271.934C657.633 282.116 699.929 337.258 679.721 435.48C665.894 502.684 608.757 547.8 565.99 557.67" stroke="black" stroke-width="18"/>
<path d="M545.312 294.492C536.853 283.683 511.005 257.836 452.369 271.538C423.232 281.721 368.137 325.039 408.554 455.688C428.831 521.235 472.107 547.405 514.874 557.274C537.86 562.777 549.64 562.892 568.81 557.274" stroke="black" stroke-width="18"/>
<path d="M541.083 290.262C539.203 264.728 539.673 211.027 556.591 200.5" stroke="black" stroke-width="18"/>
<mask id="path-6-outside-1_237_2516" maskUnits="userSpaceOnUse" x="110.655" y="300.632" width="529.271" height="540.752" fill="black">
<rect fill="white" x="110.655" y="300.632" width="529.271" height="540.752"/>
<path fill-rule="evenodd" clip-rule="evenodd" d="M189.719 470.743C166.374 597.684 250.158 706.931 380.682 716.909C450.778 722.267 520.435 697.933 575.06 654.708C542.344 659.235 508.503 660.42 474.334 657.808C328.798 646.683 219.324 569.876 189.719 470.743Z"/>
</mask>
<path d="M380.682 716.909L382.054 698.961L380.682 716.909ZM189.719 470.743L206.966 465.592L172.016 467.487L189.719 470.743ZM575.06 654.708L586.23 668.824L638.045 627.823L572.594 636.878L575.06 654.708ZM474.334 657.808L472.962 675.756L474.334 657.808ZM382.054 698.961C262.127 689.794 186.022 590.362 207.422 473.998L172.016 467.487C146.725 605.006 238.189 724.069 379.31 734.857L382.054 698.961ZM563.891 640.593C512.398 681.339 447.132 703.936 382.054 698.961L379.31 734.857C454.424 740.599 528.472 714.526 586.23 668.824L563.891 640.593ZM572.594 636.878C541.119 641.233 508.565 642.373 475.706 639.861L472.962 675.756C508.441 678.468 543.569 677.237 577.527 672.539L572.594 636.878ZM475.706 639.861C334.871 629.095 233.751 555.279 206.966 465.592L172.471 475.893C204.898 584.473 322.724 664.271 472.962 675.756L475.706 639.861Z" fill="black" mask="url(#path-6-outside-1_237_2516)"/>
<rect width="35.5892" height="66.3354" transform="matrix(0.985111 -0.171922 0.0479481 0.99885 168.948 406.121)" fill="black"/>
</svg>
