<svg width="1602" height="1266" viewBox="0 0 1602 1266" fill="none" xmlns="http://www.w3.org/2000/svg">
<path d="M1352.5 947.5C1419 969.667 1528 1041.9 1432 1153.5M1352.5 947.5C1433.67 967.333 1563.2 1036.3 1432 1153.5M1352.5 947.5C1535.7 1023.5 1481.83 1116.5 1432 1153.5M1352.5 947.5C1439.17 974.833 1576.4 1054.3 1432 1153.5M1352.5 947.5C1441 994 1580.8 1100.3 1432 1153.5" stroke="white" stroke-width="17"/>
<path fill-rule="evenodd" clip-rule="evenodd" d="M1367.44 964.016C1392.91 963.674 1416.87 971.707 1437.66 985.001C1468.7 1004.84 1492.27 1036.18 1502.5 1067.84C1512.75 1099.55 1509.27 1130 1489.01 1150.38C1478.3 1161.15 1462.25 1169.79 1439.58 1174.23C1439.21 1180.24 1438.33 1186.18 1436.95 1191.95C1465.26 1187.44 1486.43 1177.08 1501.07 1162.36C1527.32 1135.96 1530.12 1098.03 1518.68 1062.62C1507.22 1027.16 1481.14 992.62 1446.82 970.678C1412.33 948.63 1369.1 939.085 1324 954.698L1326.76 962.662L1325.53 970.911C1399.99 981.958 1450.19 1033.93 1460.47 1081.43C1465.56 1104.92 1460.88 1126.82 1445.39 1142.94C1440.73 1147.78 1434.99 1152.22 1428.04 1156.08L1437.47 1170.29C1445.26 1165.83 1451.99 1160.61 1457.64 1154.72C1477.81 1133.74 1483.12 1105.71 1477.09 1077.83C1467.18 1032.1 1426.75 985.499 1367.44 964.016Z" fill="black"/>
<path d="M1245.04 994.618C1100.72 994.618 1106.79 1212.83 1290.52 1212.83C1474.26 1212.83 1389.37 994.618 1245.04 994.618Z" fill="white"/>
<path d="M1245.04 994.618C1389.37 994.618 1474.26 1212.83 1290.52 1212.83C1564.01 1251.52 1409.38 921.479 1245.04 994.618Z" fill="white"/>
<path d="M1245.04 994.618C1100.72 994.618 1106.79 1212.83 1290.52 1212.83M1245.04 994.618C1389.37 994.618 1474.26 1212.83 1290.52 1212.83M1245.04 994.618C1409.38 921.479 1564.01 1251.52 1290.52 1212.83" stroke="black" stroke-width="17"/>
<path d="M315.5 947.5C382 969.667 491 1041.9 395 1153.5M315.5 947.5C396.667 967.333 526.2 1036.3 395 1153.5M315.5 947.5C498.7 1023.5 444.833 1116.5 395 1153.5M315.5 947.5C402.167 974.833 539.4 1054.3 395 1153.5M315.5 947.5C404 994 543.8 1100.3 395 1153.5" stroke="white" stroke-width="17"/>
<path fill-rule="evenodd" clip-rule="evenodd" d="M330.442 964.016C355.909 963.674 379.867 971.707 400.663 985.001C431.697 1004.84 455.274 1036.18 465.505 1067.84C475.75 1099.55 472.27 1130 452.011 1150.38C441.301 1161.15 425.25 1169.79 402.579 1174.23C402.21 1180.24 401.333 1186.18 399.952 1191.95C428.257 1187.44 449.431 1177.08 464.066 1162.36C490.322 1135.96 493.124 1098.03 481.681 1062.62C470.225 1027.16 444.145 992.62 409.82 970.678C375.329 948.63 332.104 939.085 287 954.698L289.757 962.662L288.533 970.911C362.985 981.958 413.189 1033.93 423.473 1081.43C428.561 1104.92 423.878 1126.82 408.387 1142.94C403.733 1147.78 397.986 1152.22 391.042 1156.08L400.469 1170.29C408.265 1165.83 414.985 1160.61 420.643 1154.72C440.808 1133.74 446.125 1105.71 440.088 1077.83C430.185 1032.1 389.748 985.499 330.442 964.016Z" fill="black"/>
<path d="M208.044 994.618C63.7215 994.618 69.7852 1212.83 253.523 1212.83C437.261 1212.83 352.366 994.618 208.044 994.618Z" fill="white"/>
<path d="M208.044 994.618C352.366 994.618 437.261 1212.83 253.523 1212.83C527.008 1251.52 372.377 921.479 208.044 994.618Z" fill="white"/>
<path d="M208.044 994.618C63.7215 994.618 69.7852 1212.83 253.523 1212.83M208.044 994.618C352.366 994.618 437.261 1212.83 253.523 1212.83M208.044 994.618C372.377 921.479 527.008 1251.52 253.523 1212.83" stroke="black" stroke-width="17"/>
<path d="M668.5 947.5C735 969.667 844 1041.9 748 1153.5M668.5 947.5C749.667 967.333 879.2 1036.3 748 1153.5M668.5 947.5C851.7 1023.5 797.833 1116.5 748 1153.5M668.5 947.5C755.167 974.833 892.4 1054.3 748 1153.5M668.5 947.5C757 994 896.8 1100.3 748 1153.5" stroke="white" stroke-width="17"/>
<path fill-rule="evenodd" clip-rule="evenodd" d="M683.442 964.016C708.909 963.674 732.867 971.707 753.663 985.001C784.697 1004.84 808.274 1036.18 818.505 1067.84C828.75 1099.55 825.27 1130 805.011 1150.38C794.301 1161.15 778.25 1169.79 755.579 1174.23C755.21 1180.24 754.333 1186.18 752.952 1191.95C781.257 1187.44 802.431 1177.08 817.066 1162.36C843.322 1135.96 846.124 1098.03 834.681 1062.62C823.225 1027.16 797.145 992.62 762.82 970.678C728.329 948.63 685.104 939.085 640 954.698L642.757 962.662L641.533 970.911C715.985 981.958 766.189 1033.93 776.473 1081.43C781.561 1104.92 776.878 1126.82 761.387 1142.94C756.733 1147.78 750.986 1152.22 744.042 1156.08L753.469 1170.29C761.265 1165.83 767.985 1160.61 773.643 1154.72C793.808 1133.74 799.125 1105.71 793.088 1077.83C783.185 1032.1 742.748 985.499 683.442 964.016Z" fill="black"/>
<path d="M561.044 994.618C416.721 994.618 422.785 1212.83 606.523 1212.83C790.261 1212.83 705.366 994.618 561.044 994.618Z" fill="white"/>
<path d="M561.044 994.618C705.366 994.618 790.261 1212.83 606.523 1212.83C880.008 1251.52 725.377 921.479 561.044 994.618Z" fill="white"/>
<path d="M561.044 994.618C416.721 994.618 422.785 1212.83 606.523 1212.83M561.044 994.618C705.366 994.618 790.261 1212.83 606.523 1212.83M561.044 994.618C725.377 921.479 880.008 1251.52 606.523 1212.83" stroke="black" stroke-width="17"/>
<path d="M1431 959.036H1199H81.5L51 122.342L180 50.9641H1337C1467 35.6747 1514.33 205.969 1531.5 296.535L1551 451.28V911.514L1431 959.036Z" fill="white"/>
<path d="M1199 959.036H1431M1199 959.036L1180.5 504.036M1199 959.036H81.5L51 122.342M1431 959.036L1551 911.514V451.28M1431 959.036L1415.5 508.036M1551 451.28L1415.5 508.036M1551 451.28L1531.5 296.535M1415.5 508.036L1180.5 504.036M1415.5 508.036L1400 343.036M1180.5 504.036L1169.5 343.036M1531.5 296.535L1400 343.036M1531.5 296.535C1514.33 205.969 1467 35.6747 1337 50.9641M1400 343.036H1169.5M1400 343.036C1382.67 247.304 1298 83.0856 1154 122.342M1169.5 343.036L1154 122.342M1154 122.342L1337 50.9641M1154 122.342H51M1337 50.9641H180L51 122.342" stroke="black" stroke-width="22"/>
<path d="M746.38 294.138C769.847 277.291 828.213 246.603 870.333 266.46C907.639 279.498 961.794 350.099 935.92 475.857C918.217 561.902 845.061 619.667 790.305 632.303" stroke="black" stroke-width="23"/>
<path d="M763.829 295.342C752.998 281.503 719.904 248.41 644.83 265.954C607.523 278.991 536.983 334.454 588.731 501.73C614.692 585.654 670.102 619.161 724.858 631.797C754.289 638.842 769.371 638.989 793.915 631.797" stroke="black" stroke-width="23"/>
<path d="M758.414 289.927C756.007 257.234 756.609 188.478 778.271 175" stroke="black" stroke-width="23"/>
<mask id="path-18-outside-1_237_2612" maskUnits="userSpaceOnUse" x="224.577" y="273.305" width="676.669" height="691.281" fill="black">
<rect fill="white" x="224.577" y="273.305" width="676.669" height="691.281"/>
<path fill-rule="evenodd" clip-rule="evenodd" d="M324.994 490.244C295.104 652.774 402.377 792.649 569.495 805.424C659.241 812.285 748.427 781.127 818.367 725.785C776.478 731.58 733.15 733.098 689.401 729.754C503.064 715.51 362.9 617.17 324.994 490.244Z"/>
</mask>
<path d="M569.495 805.424L571.248 782.491L571.248 782.491L569.495 805.424ZM324.994 490.245L347.032 483.663L302.373 486.085L324.994 490.245ZM818.367 725.785L832.639 743.822L898.847 691.432L815.215 703.002L818.367 725.785ZM689.401 729.754L691.155 706.821L691.155 706.821L689.401 729.754ZM571.248 782.491C417.671 770.751 320.21 643.418 347.615 494.405L302.373 486.085C269.998 662.13 387.083 814.547 567.742 828.357L571.248 782.491ZM804.095 707.749C738.157 759.924 654.582 788.861 571.248 782.491L567.742 828.357C663.9 835.708 758.697 802.331 832.639 743.822L804.095 707.749ZM815.215 703.002C774.913 708.578 733.23 710.037 691.155 706.821L687.648 752.687C733.071 756.159 778.043 754.583 821.519 748.568L815.215 703.002ZM691.155 706.821C510.824 693.036 381.333 598.519 347.032 483.663L302.956 496.826C344.466 635.822 495.304 737.984 687.648 752.687L691.155 706.821Z" fill="black" mask="url(#path-18-outside-1_237_2612)"/>
<rect width="45.5667" height="84.9327" transform="matrix(0.985111 -0.171922 0.0479481 0.99885 298.4 407.505)" fill="black"/>
</svg>
